<svg width="87" height="85" viewBox="0 0 87 85" fill="none" xmlns="http://www.w3.org/2000/svg">
<path d="M47.5512 80.5029C46.4505 86.0164 38.4948 85.8005 37.6983 80.2355L34.3937 57.1473C34.0096 54.4633 31.556 52.5753 28.8629 52.8914L5.74695 55.6039C0.201005 56.2546 -2.07545 48.7053 2.90497 46.179L23.994 35.4819C26.37 34.2767 27.3844 31.4207 26.3008 28.9876L16.6698 7.36291C14.3886 2.24089 20.9746 -2.18083 24.8507 1.87034L40.8038 18.5436C42.6985 20.5238 45.8348 20.6089 47.8353 18.7344L64.6795 2.95129C68.7722 -0.883598 75.1057 3.88873 72.5469 8.8794L61.7437 29.9495C60.5282 32.3202 61.3844 35.227 63.6908 36.5593L84.1614 48.3843C88.9958 51.177 86.3085 58.5916 80.8065 57.641L57.8738 53.6787C55.202 53.2171 52.6485 54.9692 52.1177 57.6283L47.5512 80.5029Z" fill="#4AE3BF"/>
</svg>
