<svg width="88" height="85" viewBox="0 0 88 85" fill="none" xmlns="http://www.w3.org/2000/svg">
<path d="M48.9115 80.3961C47.9779 85.94 40.0193 85.9618 39.055 80.423L35.0545 57.4438C34.5894 54.7725 32.0799 52.9587 29.3976 53.3549L6.37405 56.7565C0.850281 57.5726 -1.65318 50.0946 3.24867 47.4207L24.0049 36.0988C26.3434 34.8232 27.2711 31.9381 26.1145 29.5384L15.8346 8.21113C13.3997 3.15953 19.849 -1.45689 23.8459 2.4767L40.2955 18.6661C42.2492 20.5888 45.3866 20.5802 47.3295 18.6469L63.6894 2.3678C67.6644 -1.58757 74.1392 2.99352 71.7323 8.05836L61.5705 29.4415C60.4271 31.8475 61.3708 34.7274 63.7163 35.9902L84.5348 47.1986C89.4514 49.8456 86.9893 57.3372 81.4611 56.5513L58.4191 53.2756C55.7346 52.894 53.2352 54.7216 52.785 57.3954L48.9115 80.3961Z" fill="#F1BC00"/>
</svg>
