<svg width="88" height="85" viewBox="0 0 88 85" fill="none" xmlns="http://www.w3.org/2000/svg">
<path d="M49.7491 79.8251C48.9075 85.3836 40.9504 85.5358 39.8944 80.0136L35.5133 57.1032C35.004 54.4399 32.4648 52.6674 29.7894 53.1076L6.82539 56.8861C1.31589 57.7926 -1.31124 50.3567 3.54561 47.6028L24.1113 35.9422C26.4283 34.6284 27.3081 31.7285 26.1119 29.3482L15.4797 8.19223C12.9614 3.18122 19.3333 -1.54024 23.3948 2.3273L40.1107 18.2448C42.0959 20.1353 45.2328 20.0753 47.1434 18.1103L63.2311 1.56532C67.14 -2.45467 73.6899 2.01965 71.3672 7.12325L61.5614 28.6701C60.4581 31.0944 61.4494 33.9585 63.8156 35.1827L84.8171 46.0483C89.7769 48.6144 87.4394 56.1453 81.8989 55.4501L58.8057 52.5526C56.1152 52.215 53.6465 54.0833 53.2406 56.7641L49.7491 79.8251Z" fill="#02234C"/>
</svg>
